<svg width="90" height="90" viewBox="0 0 90 90" fill="none" xmlns="http://www.w3.org/2000/svg">
<path d="M0.578145 68.578C0.507832 72.5585 2.03904 71.4374 2.96874 71.4882C8.21874 71.7499 13.4687 71.5976 18.7187 71.5976C18.5977 76.5664 18.1992 81.539 17.039 86.5076C16.7187 87.867 16.3398 89.8357 21.3398 89.7967C25.4414 89.7576 24.9804 87.8983 25 86.6365C25.0704 81.656 24.6485 76.6756 24.5391 71.6875C29.0391 71.8477 33.5274 72.2773 38.0191 73.3281C39.3785 73.6484 41.3472 74.0273 41.3082 69.0273C41.2691 64.9257 39.4098 65.3867 38.148 65.3671C33.6089 65.3085 29.0582 65.6484 24.519 65.789C24.519 61.0507 24.519 56.3085 24.4995 51.559C24.4995 50.5785 25.4799 49.1176 21.8003 49.059C17.8198 48.9887 18.9409 50.5199 18.8901 51.4496C18.6518 56.2504 18.7612 61.0512 18.7807 65.8476C13.5502 65.8476 8.31969 65.8359 3.08969 65.8671C2.10922 65.8671 0.648294 64.8866 0.589694 68.5663L0.578145 68.578Z" fill="black"/>
<path d="M83.441 34.6719C82.1519 33.5508 80.7027 32.6328 79.1402 31.9414C77.5894 31.2421 75.941 30.7422 74.2496 30.5312C73.4098 30.371 72.5387 30.3905 71.7105 30.3398H69.4605L64.9605 30.3202H63.4488C63.9996 28.1991 64.5699 26.0819 65.0074 23.8007C65.5856 20.7304 65.9176 17.6015 65.9762 14.4726C66.027 12.8124 65.7848 10.8632 65.1363 9.17183C64.5074 7.45303 63.5152 5.86322 62.2574 4.52342C59.7379 1.82422 56.109 0.222625 52.2769 0.203125C49.9761 0.214844 47.6871 1.30473 46.1988 3.12503L43.398 6.89453C39.8277 11.7148 36.2183 16.4961 32.558 21.2465C29.1361 25.6762 24.2494 32.1445 28.4799 34.8165C31.9487 37.0079 35.8901 30.4259 38.8199 26.1759L48.7183 11.6369L51.1675 7.98852L51.5894 7.36743C51.6402 7.29712 51.6988 7.23852 51.7613 7.17602C51.8902 7.06665 52.0504 6.9768 52.2105 6.92602C52.2886 6.90649 52.3824 6.88696 52.4722 6.88696C52.5738 6.88696 52.9136 6.90649 53.1207 6.90649C53.5894 6.94556 54.0621 7.01587 54.5191 7.13696C55.4292 7.38696 56.3003 7.81665 57.0582 8.40646C58.5894 9.58616 59.5973 11.387 59.8082 13.3167L59.859 14.0549V15.0861C59.859 15.7658 59.8394 16.4455 59.8004 17.1252C59.7301 18.4846 59.609 19.844 59.4215 21.1955C59.2418 22.5471 58.9918 23.8869 58.691 25.215L57.6715 29.4455L57.4098 30.5158L57.2809 31.0549L57.2496 31.1838L57.2301 31.2541L57.1988 31.383C57.1676 31.5237 57.148 31.6526 57.1285 31.8049C57.0582 32.383 57.1598 33.1565 57.4176 33.7346C57.6871 34.3362 57.9566 34.6838 58.4058 35.1057C58.8551 35.5276 59.5661 35.8752 60.1754 35.9963C60.4644 36.0549 60.8043 36.0745 60.9644 36.0745H61.0347H61.3042H61.855H62.9566H67.355H71.9058C73.0972 36.0745 74.2652 36.3049 75.4058 36.633C77.6558 37.3518 79.7339 38.7229 81.187 40.5628C82.6753 42.3714 83.5073 44.6213 83.6089 46.9221C83.6871 48.0941 83.5386 49.2619 83.2378 50.383C83.0894 50.9416 82.8863 51.4925 82.648 52.0315L81.7066 54.1213L74.1675 70.8913L72.2886 75.0827L71.8198 76.1335C71.6792 76.4147 71.6011 76.6217 71.4487 76.8522C71.1987 77.3131 70.8784 77.7233 70.5503 78.1139C69.1792 79.6725 67.1284 80.6334 65.0386 80.6451C61.0972 80.6646 55.0386 79.6646 54.8086 83.356C54.5274 87.3248 60.7969 86.2154 64.6289 86.2662C68.0703 86.3951 71.7578 85.0279 74.2695 82.485C74.8984 81.8444 75.4804 81.1647 75.9804 80.4147C76.2304 80.0436 76.4609 79.653 76.6718 79.2663C76.8828 78.8561 77.082 78.4577 77.2109 78.1374L79.0703 74.0476L86.4609 57.6496L87.3828 55.5988L87.8437 54.5676C88.0039 54.216 88.1835 53.7981 88.3242 53.3957C88.9335 51.7863 89.2851 50.0754 89.375 48.3645C89.5546 44.9348 88.6562 41.4036 86.7852 38.5129C85.875 37.052 84.7149 35.7629 83.4258 34.6535L83.441 34.6719Z" fill="black"/>
</svg>
