<svg xmlns="http://www.w3.org/2000/svg" width="63" height="87" viewBox="0 0 63 87" fill="none">
  <path d="M56.6029 34.4687C55.3138 33.3476 53.8646 32.4296 52.3021 31.7382C50.7513 31.039 49.1029 30.539 47.4115 30.328C46.5717 30.1679 45.7006 30.1874 44.8724 30.1366H42.6224L38.1224 30.1171H36.6107C37.1615 27.996 37.7318 25.8788 38.1693 23.5976C38.7474 20.5273 39.0795 17.3984 39.138 14.2695C39.1888 12.6093 38.9466 10.6601 38.2982 8.9687C37.6693 7.2499 36.6771 5.6601 35.4193 4.3203C32.8998 1.6211 29.2709 0.0195 25.4388 0C23.138 0.011719 20.849 1.1016 19.3607 2.9219L16.5599 6.6914C12.9896 11.5117 9.3802 16.293 5.7199 21.0434C2.298 25.4731 -2.5887 31.9414 1.6418 34.6134C5.1106 36.8048 9.052 30.2228 11.9818 25.9728L21.8802 11.4338L24.3294 7.7854L24.7513 7.16431C24.8021 7.094 24.8607 7.0354 24.9232 6.9729C25.0521 6.86352 25.2122 6.77368 25.3724 6.7229C25.4505 6.70337 25.5443 6.68384 25.6341 6.68384C25.7357 6.68384 26.0755 6.70337 26.2825 6.70337C26.7513 6.74243 27.224 6.81275 27.6809 6.93384C28.5911 7.18384 29.4621 7.61353 30.22 8.20334C31.7512 9.38304 32.7591 11.1838 32.97 13.1135L33.0208 13.8518V14.883C33.0208 15.5627 33.0013 16.2424 32.9622 16.9221C32.8919 18.2815 32.7708 19.6409 32.5833 20.9924C32.4036 22.344 32.1536 23.6838 31.8528 25.0119L30.8333 29.2424L30.5716 30.3127L30.4427 30.8518L30.4115 30.9807L30.3919 31.051L30.3607 31.1799C30.3294 31.3205 30.3099 31.4494 30.2904 31.6018C30.2201 32.1799 30.3216 32.9534 30.5794 33.5315C30.849 34.1331 31.1185 34.4807 31.5677 34.9026C32.0169 35.3245 32.7279 35.6721 33.3372 35.7932C33.6263 35.8518 33.9661 35.8713 34.1263 35.8713H34.1966H34.4661H35.0169H36.1185H40.5169H45.0677C46.2591 35.8713 47.4271 36.1018 48.5677 36.4299C50.8177 37.1487 52.8958 38.5197 54.3489 40.3596C55.8372 42.1682 56.6692 44.4182 56.7708 46.719C56.8489 47.8909 56.7005 49.0588 56.3997 50.1799C56.2513 50.7385 56.0481 51.2893 55.8099 51.8283L54.8685 53.9181L47.3294 70.6881L45.4505 74.8795L44.9817 75.9303C44.8411 76.2116 44.763 76.4186 44.6106 76.6491C44.3606 77.11 44.0403 77.5202 43.7122 77.9108C42.3411 79.4694 40.2903 80.4303 38.2005 80.442C34.2591 80.4615 28.2005 79.4615 27.9705 83.1529C27.6892 87.1217 33.9588 86.0123 37.7908 86.0631C41.2322 86.192 44.9197 84.8248 47.4314 82.2819C48.0603 81.6413 48.6423 80.9616 49.1423 80.2116C49.3923 79.8405 49.6228 79.4499 49.8337 79.0632C50.0446 78.653 50.2438 78.2546 50.3727 77.9343L52.2321 73.8445L59.6227 57.4465L60.5446 55.3957L61.0056 54.3645C61.1657 54.0129 61.3454 53.5949 61.486 53.1926C62.0954 51.5832 62.447 49.8723 62.5368 48.1614C62.7165 44.7317 61.8181 41.2005 59.947 38.3098C59.0369 36.8489 57.8767 35.5598 56.5876 34.4504L56.6029 34.4687Z" fill="#05df72"/>
</svg>